<?xml version="1.0" encoding="utf-8"?>
<!-- Generator: Adobe Illustrator 21.0.0, SVG Export Plug-In . SVG Version: 6.00 Build 0)  -->
<svg version="1.1" id="Laag_1" xmlns="http://www.w3.org/2000/svg" xmlns:xlink="http://www.w3.org/1999/xlink" x="0px" y="0px"
	 viewBox="0 0 48 48" style="enable-background:new 0 0 48 48;" xml:space="preserve">
<style type="text/css">
	.st0{filter:url(#Adobe_OpacityMaskFilter);}
	.st1{fill:#FFFFFF;}
	.st2{mask:url(#mask-2);}
	.st3{fill:none;}
	.st4{display:none;fill:none;stroke:#35BCBC;stroke-width:4;}
	.st5{fill:#35BCBC;}
</style>
<title>icon-social-twitter</title>
<desc>Created with Sketch.</desc>
<g id="Welcome">
	<g id="Mobile-Portrait-open" transform="translate(-196.000000, -1806.000000)">
		<g id="main" transform="translate(12.000000, 207.000000)">
			<g id="contact-section" transform="translate(64.000000, 1531.000000)">
				<g id="icons" transform="translate(0.000000, 68.000000)">
					<g id="twitter" transform="translate(120.000000, 0.000000)">
						<defs>
							<filter id="Adobe_OpacityMaskFilter" filterUnits="userSpaceOnUse" x="-2" y="-2" width="52" height="52">
								<feColorMatrix  type="matrix" values="1 0 0 0 0  0 1 0 0 0  0 0 1 0 0  0 0 0 1 0"/>
							</filter>
						</defs>
						<mask maskUnits="userSpaceOnUse" x="-2" y="-2" width="52" height="52" id="mask-2">
							<g class="st0">
								<circle id="path-1" class="st1" cx="24" cy="24" r="24"/>
							</g>
						</mask>
						<g id="icon-social-twitter" class="st2">
							<rect id="Rectangle" class="st3" width="48" height="48"/>
							<g id="Oval">
								<circle id="path-1_1_" class="st4" cx="24" cy="24" r="24"/>
							</g>
							<path id="Shape" class="st5" d="M33.3,18.4c1-0.6,1.7-1.6,2.1-2.7c-0.9,0.6-1.9,1-3,1.2c-0.9-1-2.1-1.6-3.4-1.6
								c-2.6,0-4.7,2.2-4.7,5c0,0.4,0,0.8,0.1,1.1c-3.9-0.2-7.4-2.2-9.7-5.2c-0.4,0.7-0.6,1.6-0.6,2.5c0,1.7,0.8,3.2,2.1,4.1
								c-0.8,0-1.5-0.3-2.1-0.6v0.1c0,2.4,1.6,4.4,3.8,4.9c-0.4,0.1-0.8,0.2-1.2,0.2c-0.3,0-0.6,0-0.9-0.1c0.6,2,2.3,3.4,4.4,3.4
								c-1.6,1.3-3.6,2.1-5.8,2.1c-0.4,0-0.8,0-1.1-0.1c2.1,1.4,4.6,2.2,7.2,2.2c8.6,0,13.4-7.6,13.4-14.1c0-0.2,0-0.4,0-0.6
								c0.9-0.7,1.7-1.6,2.3-2.6C35.2,18,34.3,18.3,33.3,18.4z"/>
						</g>
					</g>
				</g>
			</g>
		</g>
	</g>
</g>
</svg>
