<?xml version="1.0" encoding="UTF-8"?>
<svg width="48px" height="48px" viewBox="0 0 48 48" version="1.1" xmlns="http://www.w3.org/2000/svg" xmlns:xlink="http://www.w3.org/1999/xlink">
    <!-- Generator: Sketch 41.2 (35397) - http://www.bohemiancoding.com/sketch -->
    <title>icon-social-mail</title>
    <desc>Created with Sketch.</desc>
    <defs>
        <circle id="path-1" cx="24" cy="24" r="24"></circle>
        <mask id="mask-2" maskContentUnits="userSpaceOnUse" maskUnits="objectBoundingBox" x="0" y="0" width="48" height="48" fill="white">
            <use xlink:href="#path-1"></use>
        </mask>
    </defs>
    <g id="Welcome" stroke="none" stroke-width="1" fill="none" fill-rule="evenodd">
        <g id="Mobile-Portrait-open" transform="translate(-76.000000, -1806.000000)">
            <g id="main" transform="translate(12.000000, 207.000000)">
                <g id="contact-section" transform="translate(64.000000, 1531.000000)">
                    <g id="icons" transform="translate(0.000000, 68.000000)">
                        <g id="mail">
                            <g id="icon-social-mail">
                                <rect id="Rectangle" x="0" y="0" width="48" height="48"></rect>
                                <use id="Oval" stroke="#35BCBC" mask="url(#mask-2)" stroke-width="4" xlink:href="#path-1"></use>
                                <path d="M14.3035068,20.6530011 C14.6071233,20.8512617 15.5222466,21.4402617 17.0490411,22.4195446 C18.5758356,23.3988274 19.7454247,24.1529178 20.5579726,24.6816636 C20.6472329,24.7396355 20.8369315,24.8656215 21.1270685,25.059774 C21.4172055,25.2540785 21.6583562,25.4112568 21.8501918,25.5310044 C22.0421918,25.650752 22.2743014,25.7851067 22.5466849,25.9337641 C22.8190685,26.0824216 23.0758356,26.1941049 23.3168219,26.2682054 C23.5579726,26.3427623 23.7812055,26.3797365 23.9865205,26.3797365 L24,26.3797365 L24.0134795,26.3797365 C24.2187945,26.3797365 24.4420274,26.3427623 24.6831781,26.2682054 C24.9241644,26.1941049 25.1810959,26.0822694 25.4533151,25.9337641 C25.7255342,25.7849545 25.9576438,25.650752 26.1496438,25.5310044 C26.3416438,25.4112568 26.5826301,25.2540785 26.8727671,25.059774 C27.1629041,24.8654694 27.3527671,24.7396355 27.4420274,24.6816636 C28.2632877,24.1527657 30.3527671,22.8098274 33.7098082,20.6526967 C34.361589,20.2313738 34.9060274,19.7230171 35.3436164,19.1279308 C35.7813699,18.5331488 36,17.9091527 36,17.2562468 C36,16.7107637 35.7877808,16.2437937 35.3636712,15.8553367 C34.9395616,15.4668797 34.4372055,15.2727273 33.8570959,15.2727273 L14.1427397,15.2727273 C13.4552877,15.2727273 12.9263014,15.487573 12.5557808,15.9172646 C12.1852603,16.3471083 12,16.8843749 12,17.5289122 C12,18.0495937 12.245589,18.6137921 12.7366027,19.2212031 C13.2276164,19.8286141 13.7500274,20.3059308 14.3035068,20.6530011 Z M34.6606027,21.9793542 C31.732274,23.8139119 29.5088219,25.2396236 27.9912329,26.2561849 C27.4823014,26.6032552 27.0693699,26.8740948 26.752274,27.068095 C26.4353425,27.2623996 26.0135342,27.4606603 25.4866849,27.6631813 C24.96,27.8657024 24.4689863,27.9668868 24.0136438,27.9668868 L24,27.9668868 L23.9865205,27.9668868 C23.5311781,27.9668868 23.04,27.8657024 22.5133151,27.6631813 C21.9866301,27.4606603 21.5646575,27.2623996 21.247726,27.068095 C20.9307945,26.8740948 20.517863,26.6032552 20.0089315,26.2561849 C18.8035068,25.4380364 16.5848219,24.0123247 13.3527123,21.9793542 C12.8437808,21.6654542 12.3928767,21.3057549 12,20.9008649 L12,30.7436011 C12,31.2892363 12.2097534,31.7560542 12.6294247,32.1445112 C13.0490959,32.5331203 13.553589,32.7272727 14.1429041,32.7272727 L33.8572603,32.7272727 C34.446411,32.7272727 34.9509041,32.5331203 35.3705753,32.1445112 C35.790411,31.755902 36,31.2892363 36,30.7436011 L36,20.9008649 C35.616,21.2973862 35.1696986,21.6570855 34.6606027,21.9793542 Z" id="Shape" fill="#35BCBC" fill-rule="evenodd"></path>
                            </g>
                        </g>
                    </g>
                </g>
            </g>
        </g>
    </g>
</svg>