<?xml version="1.0" encoding="utf-8"?>
<!-- Generator: Adobe Illustrator 21.0.0, SVG Export Plug-In . SVG Version: 6.00 Build 0)  -->
<svg version="1.1" id="Laag_1" xmlns="http://www.w3.org/2000/svg" xmlns:xlink="http://www.w3.org/1999/xlink" x="0px" y="0px"
	 viewBox="0 0 48 48" style="enable-background:new 0 0 48 48;" xml:space="preserve">
<style type="text/css">
	.st0{filter:url(#Adobe_OpacityMaskFilter);}
	.st1{fill:#FFFFFF;}
	.st2{mask:url(#mask-2);}
	.st3{fill:none;}
	.st4{display:none;fill:none;stroke:#35BCBC;stroke-width:4;}
	.st5{fill:#35BCBC;}
</style>
<title>icon-social-mail</title>
<desc>Created with Sketch.</desc>
<g id="Welcome">
	<g id="Mobile-Portrait-open" transform="translate(-76.000000, -1806.000000)">
		<g id="main" transform="translate(12.000000, 207.000000)">
			<g id="contact-section" transform="translate(64.000000, 1531.000000)">
				<g id="icons" transform="translate(0.000000, 68.000000)">
					<g id="mail">
						<defs>
							<filter id="Adobe_OpacityMaskFilter" filterUnits="userSpaceOnUse" x="-2" y="-2" width="52" height="52">
								<feColorMatrix  type="matrix" values="1 0 0 0 0  0 1 0 0 0  0 0 1 0 0  0 0 0 1 0"/>
							</filter>
						</defs>
						<mask maskUnits="userSpaceOnUse" x="-2" y="-2" width="52" height="52" id="mask-2">
							<g class="st0">
								<circle id="path-1" class="st1" cx="24" cy="24" r="24"/>
							</g>
						</mask>
						<g id="icon-social-mail" class="st2">
							<rect id="Rectangle" class="st3" width="48" height="48"/>
							<g id="Oval">
								<circle id="path-1_1_" class="st4" cx="24" cy="24" r="24"/>
							</g>
							<path id="Shape" class="st5" d="M14.3,20.7c0.3,0.2,1.2,0.8,2.7,1.8s2.7,1.7,3.5,2.3c0.1,0.1,0.3,0.2,0.6,0.4
								c0.3,0.2,0.5,0.4,0.7,0.5c0.2,0.1,0.4,0.3,0.7,0.4c0.3,0.1,0.5,0.3,0.8,0.3c0.2,0.1,0.5,0.1,0.7,0.1h0h0c0.2,0,0.4,0,0.7-0.1
								c0.2-0.1,0.5-0.2,0.8-0.3c0.3-0.1,0.5-0.3,0.7-0.4c0.2-0.1,0.4-0.3,0.7-0.5c0.3-0.2,0.5-0.3,0.6-0.4c0.8-0.5,2.9-1.9,6.3-4
								c0.7-0.4,1.2-0.9,1.6-1.5c0.4-0.6,0.7-1.2,0.7-1.9c0-0.5-0.2-1-0.6-1.4c-0.4-0.4-0.9-0.6-1.5-0.6H14.1
								c-0.7,0-1.2,0.2-1.6,0.6c-0.4,0.4-0.6,1-0.6,1.6c0,0.5,0.2,1.1,0.7,1.7S13.8,20.3,14.3,20.7z M34.7,22
								c-2.9,1.8-5.2,3.3-6.7,4.3c-0.5,0.3-0.9,0.6-1.2,0.8c-0.3,0.2-0.7,0.4-1.3,0.6C25,27.9,24.5,28,24,28h0h0
								c-0.5,0-0.9-0.1-1.5-0.3s-0.9-0.4-1.3-0.6c-0.3-0.2-0.7-0.5-1.2-0.8c-1.2-0.8-3.4-2.2-6.7-4.3c-0.5-0.3-1-0.7-1.4-1.1v9.8
								c0,0.5,0.2,1,0.6,1.4c0.4,0.4,0.9,0.6,1.5,0.6h19.7c0.6,0,1.1-0.2,1.5-0.6c0.4-0.4,0.6-0.9,0.6-1.4v-9.8
								C35.6,21.3,35.2,21.7,34.7,22z"/>
						</g>
					</g>
				</g>
			</g>
		</g>
	</g>
</g>
</svg>
