<?xml version="1.0" encoding="UTF-8"?>
<svg width="48px" height="48px" viewBox="0 0 48 48" version="1.1" xmlns="http://www.w3.org/2000/svg" xmlns:xlink="http://www.w3.org/1999/xlink">
    <!-- Generator: Sketch 41.2 (35397) - http://www.bohemiancoding.com/sketch -->
    <title>icon-social-twitter</title>
    <desc>Created with Sketch.</desc>
    <defs>
        <circle id="path-1" cx="24" cy="24" r="24"></circle>
        <mask id="mask-2" maskContentUnits="userSpaceOnUse" maskUnits="objectBoundingBox" x="0" y="0" width="48" height="48" fill="white">
            <use xlink:href="#path-1"></use>
        </mask>
    </defs>
    <g id="Welcome" stroke="none" stroke-width="1" fill="none" fill-rule="evenodd">
        <g id="Mobile-Portrait-open" transform="translate(-196.000000, -1806.000000)">
            <g id="main" transform="translate(12.000000, 207.000000)">
                <g id="contact-section" transform="translate(64.000000, 1531.000000)">
                    <g id="icons" transform="translate(0.000000, 68.000000)">
                        <g id="twitter" transform="translate(120.000000, 0.000000)">
                            <g id="icon-social-twitter">
                                <rect id="Rectangle" x="0" y="0" width="48" height="48"></rect>
                                <use id="Oval" stroke="#35BCBC" mask="url(#mask-2)" stroke-width="4" xlink:href="#path-1"></use>
                                <path d="M33.3012534,18.3771618 C34.272103,17.7645004 35.0170485,16.7930351 35.3666619,15.6357859 C34.457667,16.2044831 33.4532008,16.6157604 32.3815012,16.8384174 C31.526293,15.874043 30.3039908,15.2727273 28.9512558,15.2727273 C26.3560486,15.2727273 24.2529895,17.4922065 24.2529895,20.2293278 C24.2529895,20.6179139 24.2919848,20.9965727 24.3726648,21.3582131 C20.467752,21.1511562 17.0052346,19.1798616 14.6856841,16.1789555 C14.2809393,16.9135819 14.0496566,17.7645004 14.0496566,18.6721469 C14.0496566,20.3910023 14.8793161,21.9084737 16.1406137,22.7991018 C15.3701196,22.7735743 14.6453441,22.5480808 14.0106613,22.1793495 L14.0106613,22.240332 C14.0106613,24.6427587 15.6296403,26.6466718 17.7824521,27.1004951 C17.38712,27.2167873 16.9729626,27.2749334 16.5426692,27.2749334 C16.2401191,27.2749334 15.9442924,27.2451512 15.659223,27.1870051 C16.2562551,29.1554633 17.9922201,30.5906793 20.0495606,30.6289706 C18.4399942,31.95924 16.4135811,32.7505942 14.2123613,32.7505942 C13.8331652,32.7505942 13.4580032,32.7293212 13.0909091,32.6825207 C15.1711089,34.0879545 17.6412621,34.9090909 20.2956346,34.9090909 C28.9418432,34.9090909 33.6670028,27.3557706 33.6670028,20.805116 C33.6670028,20.58955 33.6643135,20.3754022 33.6549008,20.1640907 C34.5733084,19.4649193 35.3720405,18.5913096 36,17.5971531 C35.1568938,17.991412 34.2505883,18.2580332 33.3012534,18.3771618 Z" id="Shape" fill="#35BCBC" fill-rule="evenodd"></path>
                            </g>
                        </g>
                    </g>
                </g>
            </g>
        </g>
    </g>
</svg>