<?xml version="1.0" encoding="utf-8"?>
<!-- Generator: Adobe Illustrator 21.0.0, SVG Export Plug-In . SVG Version: 6.00 Build 0)  -->
<svg version="1.1" id="Laag_1" xmlns="http://www.w3.org/2000/svg" xmlns:xlink="http://www.w3.org/1999/xlink" x="0px" y="0px"
	 viewBox="0 0 48 48" style="enable-background:new 0 0 48 48;" xml:space="preserve">
<style type="text/css">
	.st0{filter:url(#Adobe_OpacityMaskFilter);}
	.st1{fill:#FFFFFF;}
	.st2{mask:url(#mask-2);}
	.st3{fill:none;}
	.st4{display:none;fill:none;stroke:#35BCBC;stroke-width:4;}
	.st5{fill:#35BCBC;}
</style>
<title>icon-social-linkedin</title>
<desc>Created with Sketch.</desc>
<g id="Welcome">
	<g id="Mobile-Portrait-open" transform="translate(-136.000000, -1806.000000)">
		<g id="main" transform="translate(12.000000, 207.000000)">
			<g id="contact-section" transform="translate(64.000000, 1531.000000)">
				<g id="icons" transform="translate(0.000000, 68.000000)">
					<g id="linkedin" transform="translate(60.000000, 0.000000)">
						<defs>
							<filter id="Adobe_OpacityMaskFilter" filterUnits="userSpaceOnUse" x="-2" y="-2" width="52" height="52">
								<feColorMatrix  type="matrix" values="1 0 0 0 0  0 1 0 0 0  0 0 1 0 0  0 0 0 1 0"/>
							</filter>
						</defs>
						<mask maskUnits="userSpaceOnUse" x="-2" y="-2" width="52" height="52" id="mask-2">
							<g class="st0">
								<circle id="path-1" class="st1" cx="24" cy="24" r="24"/>
							</g>
						</mask>
						<g id="icon-social-linkedin" class="st2">
							<rect id="Rectangle" class="st3" width="48" height="48"/>
							<g id="Oval">
								<circle id="path-1_1_" class="st4" cx="24" cy="24" r="24"/>
							</g>
							<path id="Shape" class="st5" d="M13.6,20.1h4.3v14.8h-4.3V20.1z M15.7,18.2L15.7,18.2c-1.6,0-2.6-1.1-2.6-2.6
								c0-1.5,1-2.6,2.6-2.6c1.6,0,2.5,1.1,2.6,2.6C18.3,17.1,17.3,18.2,15.7,18.2L15.7,18.2z M34.9,34.9h-4.8v-7.7
								c0-2-0.8-3.4-2.4-3.4c-1.3,0-2,0.9-2.3,1.8c-0.1,0.3-0.1,0.8-0.1,1.2v8h-4.8c0,0,0.1-13.6,0-14.8h4.8v2.3
								c0.3-1,1.8-2.5,4.2-2.5c3,0,5.4,2.1,5.4,6.7V34.9L34.9,34.9z"/>
						</g>
					</g>
				</g>
			</g>
		</g>
	</g>
</g>
</svg>
