<?xml version="1.0" encoding="utf-8"?>
<!-- Generator: Adobe Illustrator 21.0.0, SVG Export Plug-In . SVG Version: 6.00 Build 0)  -->
<svg version="1.1" id="Laag_1" xmlns="http://www.w3.org/2000/svg" xmlns:xlink="http://www.w3.org/1999/xlink" x="0px" y="0px"
	 viewBox="0 0 640 640" style="enable-background:new 0 0 640 640;" xml:space="preserve">
<style type="text/css">
	.st0{fill:#333333;}
	.st1{fill:#FFFFFF;}
	.st2{fill:#FF6736;}
	.st3{fill:none;}
</style>
<title>logo</title>
<g id="shapes_strak_kopie">
	<g id="logo_2-3">
		<g>
			<rect x="348.8" y="515.1" class="st0" width="84.3" height="20"/>
		</g>
		<g>
			<polygon class="st0" points="367.1,531.2 311.6,452.6 347.1,427.5 358.7,443.9 339.5,457.4 383.5,519.6 			"/>
		</g>
		<g>
			<path class="st0" d="M368.8,535.1c0-11-9-20-20-20c-11,0-20,9-20,20H368.8z"/>
		</g>
		<g>
			<path class="st0" d="M453.1,535.1c0-11-9-20-20-20c-11,0-20,9-20,20H453.1z"/>
		</g>
		<g id="_Groep__1_">
			<g>
				<path class="st0" d="M615.3,164.6c-17.7,15.7-44.7,14.1-60.4-3.5c1.1-1.2,2.3-2.4,3.5-3.5c17.6-15.7,44.6-14.1,60.3,3.5
					C617.6,162.4,616.4,163.5,615.3,164.6z"/>
			</g>
		</g>
		<g>
			<path class="st0" d="M18.1,278c0,11,9,20,20,20s20-9,20-20H18.1z"/>
		</g>
		<g id="_Groep_2_1_">
			<g>
				<path class="st1" d="M275,383.4c11.8,17.9,28.2,32.4,47.4,41.9c60,29.8,132.7,5.2,162.5-54.8c0.7-1.4,1.3-2.9,2-4.3l4.2-8.8
					l93.5-197.9c-39.2-48.1-108.3-58.9-160.3-25l-0.1,0.1c-2.2,1.5-4.5,3.1-6.6,4.7l-107,75.3c-2.8,1.8-5.5,3.7-8.1,5.7l-95.3,67.1
					l0.9,0.6l17.9,25.6l35.9,51.2L275,383.4z"/>
				<path class="st0" d="M376.1,438.5c-18.5,0-36.9-4.3-54-12.8c-19.3-9.5-35.7-24.1-47.6-42.1l-13.1-18.6l-35.9-51.2l-17.8-25.5
					l-1.4-1l95.9-67.5c2.6-2,5.3-3.9,8.1-5.7l107-75.3c2.2-1.7,4.6-3.3,6.6-4.7l0.1-0.1c52.3-34.1,121.5-23.3,160.9,25.1l0.2,0.2
					l-0.1,0.3l-93.5,197.9l-4.2,8.8c-0.4,0.7-0.7,1.4-1,2.1c-0.3,0.7-0.7,1.5-1,2.2c-14.5,29.1-39.4,50.9-70.2,61.3
					C402.4,436.4,389.2,438.5,376.1,438.5z M208.1,287.4l0.4,0.3l17.9,25.6l35.9,51.2l13.1,18.6c11.8,17.8,28.1,32.3,47.2,41.7
					c28.9,14.3,61.6,16.6,92.2,6.2c30.5-10.3,55.3-31.9,69.6-60.8c0.3-0.7,0.7-1.4,1-2.1c0.3-0.7,0.7-1.5,1-2.2l4.2-8.8L584,159.6
					c-39.1-47.8-107.6-58.4-159.4-24.7l-0.1,0.1c-2.1,1.4-4.5,3.1-6.6,4.7l-107,75.3c-2.8,1.8-5.5,3.7-8.1,5.7L208.1,287.4z"/>
			</g>
			<g>
				<path class="st2" d="M573.1,161.4c-23.6-29-65.2-35.5-96.4-15.1l-0.1,0.1c-1.4,0.9-2.7,1.8-4,2.8l-64.5,45.4
					c-1.7,1-3.3,2.2-4.9,3.4l-56.9,40.8l40.2,57.4c7.2,10.8,17,19.5,28.7,25.3c36.1,17.9,80,3.2,97.9-33c0.4-0.9,0.8-1.7,1.2-2.6
					l2.5-5.3L573.1,161.4L573.1,161.4z"/>
			</g>
			<g>
				<path class="st0" d="M376.5,448c-8.9,0-17.8-0.9-26.7-2.7c-34.3-7-63.8-27-83.1-56.2l-65.5-93.7l-11.5-7.6l107.1-75.4
					c2.7-2.1,5.5-4.1,8.4-5.9l106.6-75c2.2-1.8,4.5-3.3,6.4-4.6c0.4-0.3,0.8-0.6,1.2-0.8c56.3-36.3,130.5-24.6,173,27.3l4,4.9
					L495.9,370.3c-0.7,1.5-1.4,3.1-2.2,4.6c-10.2,20.7-25.9,38.4-45.3,51.3C426.7,440.6,401.9,448,376.5,448z M234.3,307.9l48.9,70
					c16.4,24.8,41.4,41.8,70.5,47.8c29.1,6,58.8,0.3,83.6-16.1c16.5-10.9,29.8-25.9,38.4-43.5c0.6-1.3,1.3-2.6,1.8-3.8l0.2-0.4
					l4.2-8.8l90.8-192c-36-39.5-95.1-47.9-140.8-19.6l-2.2,1.4c-1.9,1.2-3.9,2.6-5.8,4.1l-0.5,0.4l-107.2,75.4l-0.2,0.1
					c-2.6,1.6-5,3.4-7.4,5.2l-0.3,0.3l-86.8,61.1L234.3,307.9z"/>
			</g>
			<g>
				<rect x="38.1" y="278" class="st0" width="170" height="20"/>
			</g>
		</g>
		<g>
			<path class="st1" d="M308.8,277.1l-74.7,52.6l-36.2,25.5c49.7,35,116.1,35,165.9,0L308.8,277.1z"/>
		</g>
		<g>
			<path class="st0" d="M280.8,391.4c-31.1,0-62.2-9.3-88.7-28l-11.6-8.2l122.5-86.3l11.5,16.4L216,354.7
				c44.4,24.5,99.9,22,142.1-7.7l11.5,16.4C343,382.1,311.9,391.4,280.8,391.4z"/>
		</g>
		<g>
			<circle class="st0" cx="505.2" cy="161.1" r="15"/>
		</g>
	</g>
</g>
<g>
	<g>
		<rect class="st3" width="640" height="640"/>
	</g>
</g>
</svg>
